PathFileType	4	(X/Y/Z)	C:\Users\italobelli\Desktop\GitHub\PTbot_officialCBL\Personal_Results\FLX03_noisy1.trc
DataRate	CameraRate	NumFrames	NumMarkers	Units	OrigDataRate	OrigDataStartFrame	OrigNumFrames
106.125000	106.125000	25	9	m	106.125000	107	850
Frame#	Time		gu		centelbow		EpL		centpxt8		centijc7		ij		ts		aa		ai
			X1	Y1	Z1	X2	Y2	Z2	X3	Y3	Z3	X4	Y4	Z4	X5	Y5	Z5	X6	Y6	Z6	X7	Y7	Z7	X8	Y8	Z8	X9	Y9	Z9

107	0.99882	-0.078415	-0.017702	0.16441	-0.087468	-0.26576	0.19676	-0.069065	-0.25844	0.2222	-0.046816	-0.15316	-0.008669	-0.046816	0.031938	-0.008669	0	0	0	-0.13791	0.022022	0.05252	-0.10956	0.02128	0.16837	-0.15075	-0.090494	0.060308
108	1.0082	-0.07834	-0.017719	0.16443	-0.086323	-0.26572	0.19701	-0.067968	-0.25833	0.22245	-0.046816	-0.15316	-0.008669	-0.046816	0.031938	-0.008669	0	0	0	-0.13793	0.021975	0.052555	-0.10955	0.021285	0.16839	-0.15075	-0.090544	0.060388
109	1.0177	-0.078261	-0.017727	0.16445	-0.085039	-0.26562	0.1973	-0.066743	-0.25816	0.22272	-0.046816	-0.15316	-0.008669	-0.046816	0.031938	-0.008669	0	0	0	-0.13796	0.021917	0.052593	-0.10953	0.021294	0.1684	-0.15075	-0.090604	0.060481
110	1.0271	-0.078178	-0.017725	0.16448	-0.08362	-0.26547	0.19761	-0.065392	-0.25792	0.22303	-0.046816	-0.15316	-0.008669	-0.046816	0.031938	-0.008669	0	0	0	-0.13799	0.02185	0.052633	-0.10951	0.021306	0.16842	-0.15075	-0.090674	0.060586
111	1.0365	-0.07809	-0.017715	0.16451	-0.082072	-0.26526	0.19796	-0.06392	-0.25761	0.22337	-0.046816	-0.15316	-0.008669	-0.046816	0.031938	-0.008669	0	0	0	-0.13803	0.021774	0.052675	-0.10949	0.021323	0.16844	-0.15074	-0.090755	0.060703
112	1.0459	-0.077997	-0.017697	0.16454	-0.080398	-0.26499	0.19833	-0.062331	-0.25725	0.22373	-0.046816	-0.15316	-0.008669	-0.046816	0.031938	-0.008669	0	0	0	-0.13807	0.021689	0.052719	-0.10947	0.021343	0.16846	-0.15073	-0.090845	0.060832
113	1.0554	-0.077901	-0.017669	0.16457	-0.078604	-0.26467	0.19873	-0.06063	-0.25682	0.22413	-0.046816	-0.15316	-0.008669	-0.046816	0.031938	-0.008669	0	0	0	-0.13812	0.021594	0.052765	-0.10945	0.021367	0.16848	-0.15071	-0.090945	0.060972
114	1.0648	-0.077801	-0.017633	0.16461	-0.076693	-0.2643	0.19915	-0.058821	-0.25633	0.22455	-0.046816	-0.15316	-0.008669	-0.046816	0.031938	-0.008669	0	0	0	-0.13817	0.021491	0.052814	-0.10943	0.021395	0.1685	-0.15069	-0.091054	0.061124
115	1.0742	-0.077697	-0.017589	0.16465	-0.074672	-0.26387	0.1996	-0.056908	-0.25578	0.225	-0.046816	-0.15316	-0.008669	-0.046816	0.031938	-0.008669	0	0	0	-0.13823	0.02138	0.052864	-0.10941	0.021426	0.16852	-0.15067	-0.091172	0.061287
116	1.0836	-0.077589	-0.017537	0.16469	-0.072543	-0.2634	0.20007	-0.054897	-0.25517	0.22547	-0.046816	-0.15316	-0.008669	-0.046816	0.031938	-0.008669	0	0	0	-0.13829	0.021261	0.052916	-0.10939	0.021461	0.16854	-0.15064	-0.091298	0.06146
117	1.0931	-0.077478	-0.017476	0.16473	-0.070313	-0.26287	0.20057	-0.052791	-0.25451	0.22596	-0.046816	-0.15316	-0.008669	-0.046816	0.031938	-0.008669	0	0	0	-0.13836	0.021133	0.052971	-0.10936	0.021499	0.16856	-0.1506	-0.091432	0.061645
118	1.1025	-0.077364	-0.017408	0.16478	-0.067986	-0.26229	0.20109	-0.050594	-0.25379	0.22648	-0.046816	-0.15316	-0.008669	-0.046816	0.031938	-0.008669	0	0	0	-0.13843	0.020998	0.053026	-0.10934	0.02154	0.16858	-0.15057	-0.091574	0.06184
119	1.1119	-0.077246	-0.017331	0.16483	-0.065565	-0.26167	0.20162	-0.048312	-0.25301	0.22702	-0.046816	-0.15316	-0.008669	-0.046816	0.031938	-0.008669	0	0	0	-0.1385	0.020856	0.053084	-0.10931	0.021585	0.1686	-0.15053	-0.091724	0.062045
120	1.1213	-0.077125	-0.017248	0.16488	-0.063057	-0.261	0.20218	-0.045948	-0.25218	0.22757	-0.046816	-0.15316	-0.008669	-0.046816	0.031938	-0.008669	0	0	0	-0.13858	0.020707	0.053144	-0.10929	0.021633	0.16862	-0.15048	-0.09188	0.06226
121	1.1307	-0.077002	-0.017156	0.16493	-0.060465	-0.26028	0.20276	-0.043507	-0.2513	0.22815	-0.046816	-0.15316	-0.008669	-0.046816	0.031938	-0.008669	0	0	0	-0.13866	0.02055	0.053205	-0.10926	0.021685	0.16865	-0.15043	-0.092043	0.062485
122	1.1402	-0.076875	-0.017057	0.16498	-0.057795	-0.25951	0.20335	-0.040994	-0.25036	0.22874	-0.046816	-0.15316	-0.008669	-0.046816	0.031938	-0.008669	0	0	0	-0.13875	0.020387	0.053267	-0.10923	0.021739	0.16867	-0.15038	-0.092213	0.06272
123	1.1496	-0.076746	-0.016951	0.16503	-0.05505	-0.2587	0.20396	-0.038412	-0.24938	0.22935	-0.046816	-0.15316	-0.008669	-0.046816	0.031938	-0.008669	0	0	0	-0.13884	0.020218	0.053332	-0.1092	0.021796	0.16869	-0.15033	-0.092388	0.062964
124	1.159	-0.076615	-0.016837	0.16509	-0.052237	-0.25785	0.20459	-0.035767	-0.24834	0.22998	-0.046816	-0.15316	-0.008669	-0.046816	0.031938	-0.008669	0	0	0	-0.13893	0.020043	0.053397	-0.10917	0.021857	0.16871	-0.15027	-0.092569	0.063217
125	1.1684	-0.076481	-0.016716	0.16514	-0.049358	-0.25696	0.20522	-0.033062	-0.24726	0.23062	-0.046816	-0.15316	-0.008669	-0.046816	0.031938	-0.008669	0	0	0	-0.13903	0.019861	0.053465	-0.10914	0.02192	0.16873	-0.15021	-0.092756	0.06348
126	1.1779	-0.076345	-0.016589	0.1652	-0.04642	-0.25602	0.20588	-0.030303	-0.24613	0.23127	-0.046816	-0.15316	-0.008669	-0.046816	0.031938	-0.008669	0	0	0	-0.13912	0.019674	0.053533	-0.10911	0.021986	0.16875	-0.15014	-0.092947	0.063751
127	1.1873	-0.076207	-0.016454	0.16526	-0.043425	-0.25504	0.20654	-0.027492	-0.24495	0.23194	-0.046816	-0.15316	-0.008669	-0.046816	0.031938	-0.008669	0	0	0	-0.13922	0.019482	0.053603	-0.10908	0.022055	0.16878	-0.15008	-0.093143	0.06403
128	1.1967	-0.076067	-0.016313	0.16532	-0.040381	-0.25403	0.20722	-0.024636	-0.24373	0.23261	-0.046816	-0.15316	-0.008669	-0.046816	0.031938	-0.008669	0	0	0	-0.13933	0.019284	0.053674	-0.10905	0.022127	0.1688	-0.15001	-0.093343	0.064318
129	1.2061	-0.075925	-0.016165	0.16538	-0.03729	-0.25297	0.2079	-0.021738	-0.24246	0.2333	-0.046816	-0.15316	-0.008669	-0.046816	0.031938	-0.008669	0	0	0	-0.13943	0.019082	0.053747	-0.10902	0.022202	0.16882	-0.14993	-0.093547	0.064613
130	1.2155	-0.075782	-0.016011	0.16544	-0.034157	-0.25188	0.2086	-0.018803	-0.24115	0.23399	-0.046816	-0.15316	-0.008669	-0.046816	0.031938	-0.008669	0	0	0	-0.13954	0.018874	0.05382	-0.10898	0.022279	0.16884	-0.14986	-0.093755	0.064917
131	1.225	-0.075637	-0.01585	0.1655	-0.030988	-0.25075	0.2093	-0.015834	-0.2398	0.23469	-0.046816	-0.15316	-0.008669	-0.046816	0.031938	-0.008669	0	0	0	-0.13965	0.018663	0.053895	-0.10895	0.022358	0.16886	-0.14978	-0.093966	0.065228
